<?xml version="1.0" standalone="no"?>
<!DOCTYPE svg PUBLIC "-//W3C//DTD SVG 20010904//EN"
 "http://www.w3.org/TR/2001/REC-SVG-20010904/DTD/svg10.dtd">
<svg version="1.0" xmlns="http://www.w3.org/2000/svg"
 width="601.000000pt" height="601.000000pt" viewBox="0 0 601.000000 601.000000"
 preserveAspectRatio="xMidYMid meet">

<g transform="translate(0.000000,601.000000) scale(0.100000,-0.100000)"
fill="#000000" stroke="none">
<path d="M2745 5963 c-33 -2 -64 -8 -69 -14 -6 -5 -37 -9 -70 -9 -34 -1 -90
-7 -126 -14 -330 -68 -499 -121 -749 -237 -469 -219 -899 -588 -1202 -1034
-193 -284 -353 -649 -420 -963 -5 -26 -14 -65 -20 -87 -73 -308 -80 -734 -18
-1125 58 -366 226 -784 454 -1125 479 -719 1228 -1186 2090 -1302 170 -23 606
-23 771 0 457 64 879 223 1249 469 192 128 281 202 470 392 238 238 402 465
549 756 361 718 413 1558 143 2326 -308 878 -1049 1582 -1947 1851 -151 45
-321 81 -439 94 -53 6 -127 15 -166 19 -68 9 -379 10 -500 3z m683 -421 c42
-2 62 -8 59 -15 -2 -7 -17 -13 -33 -15 -66 -7 -107 -38 -142 -108 -17 -34 -19
-47 -11 -84 19 -82 60 -134 100 -125 17 4 30 1 39 -10 8 -9 29 -15 57 -15 30
0 45 -5 49 -15 9 -22 24 -18 24 7 0 32 48 78 81 78 15 0 31 5 34 10 13 21 22
8 28 -42 4 -29 16 -65 28 -81 22 -31 19 -57 -6 -57 -9 0 -13 -4 -10 -10 8 -13
2 -13 -80 7 -38 9 -83 27 -98 40 -39 32 -48 29 -32 -11 16 -37 12 -82 -10
-126 -7 -14 -18 -37 -25 -52 -16 -33 -56 -62 -72 -52 -19 12 -80 14 -99 4 -60
-33 -97 70 -70 194 15 67 3 132 -30 162 -25 22 -24 28 7 59 23 23 25 32 22 84
-3 55 -1 60 35 100 20 22 37 50 37 60 0 22 18 32 40 23 8 -3 43 -8 78 -10z
m-725 -19 c14 -8 7 -33 -11 -33 -22 0 -73 -52 -96 -97 -33 -65 -15 -163 37
-212 48 -44 10 -56 -49 -16 -20 14 -49 25 -65 25 -34 0 -59 23 -59 56 0 31
-63 101 -108 120 -19 8 -54 14 -77 14 -26 0 -47 6 -55 15 -7 9 -11 17 -9 19
15 13 71 35 104 42 22 4 51 15 65 25 14 10 57 23 95 29 39 7 88 15 110 20 37
7 100 3 118 -7z m1110 -82 c30 -32 34 -43 14 -35 -8 3 -20 -2 -27 -10 -7 -9
-16 -13 -22 -10 -5 3 -4 12 3 20 9 11 9 18 1 26 -13 13 -16 38 -4 38 4 0 19
-13 35 -29z m193 -64 c33 -30 36 -39 41 -99 8 -96 -1 -131 -48 -178 -22 -22
-46 -40 -53 -40 -8 0 -20 -10 -28 -21 -13 -20 -16 -21 -39 -8 -13 8 -42 14
-64 14 -36 0 -40 2 -38 25 1 14 -6 48 -14 76 -10 31 -13 59 -8 70 4 11 9 34
10 52 2 40 34 86 64 90 11 2 21 8 21 13 0 5 13 9 29 9 16 0 31 6 35 15 9 26
54 17 92 -18z m-290 -94 c-10 -10 -19 5 -10 18 6 11 8 11 12 0 2 -7 1 -15 -2
-18z m-1828 -96 c10 -8 9 -13 -3 -27 -28 -31 -17 -73 26 -95 29 -16 79 -6 79
15 0 5 6 10 14 10 9 0 14 -11 13 -33 -1 -47 19 -90 54 -117 31 -22 31 -22 82
-3 35 12 55 27 67 48 13 23 24 30 46 30 37 0 46 -31 12 -44 -26 -10 -64 -48
-56 -56 7 -8 147 72 179 102 15 14 29 40 33 61 3 20 16 48 27 61 18 22 23 24
53 13 18 -7 41 -12 50 -12 15 0 17 -6 13 -30 -4 -16 -3 -31 2 -34 4 -3 41 6
82 20 58 20 89 25 141 22 93 -5 102 -18 38 -52 -47 -24 -53 -26 -64 -11 -10
14 -17 14 -71 -3 -47 -14 -59 -22 -57 -36 3 -15 -2 -17 -27 -11 -30 6 -43 -6
-21 -20 6 -3 10 -20 10 -37 0 -27 3 -30 23 -24 165 47 261 55 330 28 25 -11
27 -14 16 -34 -16 -30 -25 -38 -105 -99 -38 -29 -114 -74 -168 -101 -116 -56
-141 -84 -151 -170 -3 -32 -2 -58 2 -58 18 0 110 64 155 108 81 79 79 14 -2
-73 l-50 -52 25 -11 c66 -30 -16 -146 -164 -233 l-56 -33 -54 -143 c-43 -116
-51 -146 -41 -158 10 -12 7 -33 -13 -107 -15 -51 -27 -104 -29 -118 -3 -24 -6
-25 -98 -30 -133 -7 -158 -27 -161 -125 -2 -52 1 -60 29 -86 17 -16 37 -29 44
-29 36 0 38 -20 38 -307 0 -300 -2 -311 -45 -263 -10 11 -36 25 -58 31 -44 12
-43 3 -21 138 l7 44 -29 -7 c-60 -15 -86 -39 -115 -106 -18 -43 -35 -69 -52
-78 -14 -7 -48 -37 -75 -67 -59 -64 -77 -123 -69 -221 3 -37 1 -67 -5 -70 -5
-4 -18 -25 -27 -48 -40 -92 -67 -144 -103 -202 -55 -88 -54 -90 50 -98 48 -3
124 -9 169 -12 l81 -7 11 39 c6 22 22 52 35 67 22 28 24 28 67 16 24 -6 69
-11 99 -11 30 1 61 -2 68 -6 7 -5 14 -27 16 -51 2 -23 5 -44 8 -46 7 -7 112
22 171 47 29 11 68 33 87 48 20 15 53 36 75 48 68 35 132 99 165 166 l31 63 1
262 c0 195 -3 266 -13 277 -18 22 -20 386 -1 368 9 -10 12 -57 12 -183 l-2
-169 41 -42 c37 -38 101 -141 101 -162 0 -5 -14 -21 -31 -36 l-31 -28 1 -222
c1 -126 -2 -222 -7 -222 -5 0 -35 -34 -67 -76 -115 -149 -275 -237 -511 -280
-16 -3 -23 -16 -33 -56 -20 -90 -75 -190 -128 -234 -133 -111 -250 -164 -359
-164 -35 0 -64 -4 -64 -9 0 -15 212 -225 248 -247 18 -10 35 -29 38 -41 4 -13
10 -23 15 -23 5 0 15 -11 21 -25 6 -14 17 -25 25 -25 7 0 13 -9 13 -19 0 -19
72 -61 104 -61 20 0 29 -17 15 -26 -7 -4 3 -14 26 -25 40 -20 65 -13 65 17 0
18 24 18 39 0 7 -8 27 -17 46 -20 39 -8 53 -22 36 -39 -6 -6 -11 -21 -11 -33
0 -16 8 -23 30 -27 25 -6 30 -11 30 -37 0 -29 2 -30 43 -30 31 0 49 6 62 20
17 19 41 18 29 -1 -3 -6 1 -18 10 -28 21 -23 12 -47 -20 -55 -13 -4 -24 -13
-24 -21 0 -8 -14 -30 -31 -49 -26 -30 -35 -34 -62 -29 -68 13 -231 100 -297
160 -37 32 -111 87 -165 121 -114 72 -152 98 -180 127 -52 52 -214 235 -244
275 -51 67 -93 110 -108 110 -18 0 -16 -25 2 -40 8 -7 15 -20 15 -30 0 -32
-30 -45 -104 -46 -39 0 -75 -2 -81 -4 -5 -1 -18 -2 -27 -1 -13 2 -18 -5 -18
-23 0 -21 9 -28 55 -45 31 -12 64 -21 75 -21 28 0 34 -19 14 -41 -14 -16 -31
-19 -94 -19 -85 0 -96 -6 -106 -58 l-6 -32 68 0 c37 0 84 -5 103 -11 20 -7 42
-14 50 -16 11 -3 10 -7 -4 -23 -20 -22 -88 -26 -180 -10 l-50 8 -46 -51 -47
-52 -57 20 c-31 10 -59 26 -62 34 -14 44 -45 102 -56 106 -82 25 -160 61 -177
82 -26 33 -26 75 0 98 14 13 20 31 20 63 0 54 28 103 74 132 45 27 122 50 173
50 33 0 45 5 60 26 l19 26 37 -22 c57 -34 58 -14 2 34 -45 40 -49 47 -50 89 0
39 -8 55 -58 123 -72 96 -143 236 -186 366 -18 54 -37 100 -42 104 -5 3 -42
54 -81 112 -39 59 -85 127 -103 152 -34 47 -87 161 -125 268 -20 55 -22 75
-17 175 5 113 37 257 86 388 26 69 106 166 176 215 39 26 55 44 55 59 0 38 30
98 71 142 29 32 39 51 39 76 0 25 9 42 35 67 19 19 35 44 35 55 0 38 21 83 46
100 43 28 64 74 64 142 0 34 5 65 10 68 8 5 7 11 -1 21 -10 12 -8 19 10 37 21
21 23 21 32 4 20 -35 55 -65 82 -71 22 -5 27 -3 27 13 0 13 -5 18 -14 15 -22
-9 -28 13 -12 44 14 28 14 30 -9 40 -43 20 -25 42 35 42 38 0 102 65 97 97 -2
12 2 24 9 27 17 7 18 49 2 92 -10 27 -8 36 11 68 31 50 102 106 135 106 42 0
82 26 100 65 9 19 21 35 26 35 6 0 9 12 8 27 -2 14 3 28 10 31 7 2 33 22 58
43 25 21 52 39 60 39 8 0 31 15 50 33 55 49 94 67 134 60 19 -3 41 -10 48 -16z
m1070 -23 c39 -11 27 -34 -18 -34 -27 0 -40 4 -40 13 0 26 16 32 58 21z m1472
-18 c21 -1 25 -6 22 -29 -2 -19 2 -27 13 -27 8 0 16 -8 16 -17 3 -38 -4 -99
-13 -116 -15 -28 -69 -77 -103 -92 -43 -19 -131 -29 -140 -16 -3 6 -14 11 -24
11 -10 0 -28 11 -40 24 -19 20 -21 28 -11 46 6 11 10 31 9 43 -4 40 26 86 91
138 62 49 66 51 110 44 25 -4 56 -8 70 -9z m-652 -118 c-3 -7 -11 -13 -18 -13
-7 0 -15 6 -17 13 -3 7 4 12 17 12 13 0 20 -5 18 -12z m66 -177 c16 -9 38 -21
48 -28 35 -20 126 -115 138 -144 l12 -27 48 22 c47 22 110 25 110 5 0 -5 -4
-9 -10 -9 -5 0 -10 -4 -10 -10 0 -18 35 -11 53 11 28 33 51 21 55 -29 3 -43
26 -59 39 -27 3 9 28 27 54 41 44 22 57 24 117 18 37 -4 76 -12 87 -17 11 -6
27 -10 36 -9 21 4 49 -30 58 -70 9 -44 4 -66 -19 -73 -10 -3 -22 -14 -25 -25
-11 -36 -74 -62 -163 -68 -65 -4 -86 -2 -100 10 -9 9 -27 19 -39 22 -23 7 -43
52 -43 97 0 34 -9 35 -58 12 l-35 -17 -27 32 c-14 18 -32 32 -38 32 -6 0 -15
6 -19 14 -13 22 -53 2 -53 -28 0 -14 5 -28 11 -32 6 -3 9 -18 6 -33 -7 -35 6
-56 43 -71 31 -13 37 -24 20 -35 -15 -9 -2 -25 21 -25 14 0 21 -9 25 -29 6
-28 8 -29 28 -15 27 17 36 10 36 -27 0 -17 8 -32 23 -42 22 -14 25 -13 51 19
31 39 53 43 65 12 5 -13 42 -52 82 -88 68 -61 76 -65 123 -67 28 -1 52 -2 54
-2 1 -1 -4 -11 -12 -23 -8 -13 -18 -42 -22 -65 -5 -35 -2 -46 20 -76 30 -39
42 -46 100 -57 70 -14 146 53 146 130 0 34 -25 90 -40 90 -24 0 -7 27 25 39
28 10 38 10 53 -1 22 -15 122 -138 122 -149 0 -4 25 -36 55 -71 30 -34 55 -68
55 -74 0 -7 13 -38 30 -69 35 -67 90 -220 90 -251 0 -12 7 -35 15 -50 26 -50
19 -103 -17 -141 -39 -40 -42 -92 -8 -128 l21 -23 -48 -4 c-26 -3 -49 -3 -51
-2 -2 1 4 14 13 28 46 69 -29 155 -103 119 -39 -19 -58 -68 -41 -106 9 -20 8
-30 -5 -48 -20 -29 -20 -52 -1 -89 17 -33 10 -38 -21 -15 -28 21 -53 18 -63
-7 -8 -21 -54 -68 -66 -68 -15 0 -1 26 29 54 18 17 36 44 40 60 13 54 7 318
-7 340 -8 12 -17 37 -20 56 -6 32 -5 33 7 17 8 -11 13 -24 10 -31 -7 -19 75
-79 110 -82 37 -2 86 38 85 70 -1 48 -69 118 -69 72 0 -9 -7 -16 -15 -16 -25
0 -13 82 18 119 29 35 33 55 17 96 -29 76 -113 99 -172 46 -29 -26 -33 -35
-33 -83 0 -47 -2 -53 -23 -56 -12 -2 -27 -12 -32 -23 -6 -10 -18 -19 -26 -19
-9 0 -30 -11 -46 -25 -32 -27 -48 -25 -48 7 0 25 -83 134 -197 259 -45 48 -51
66 -30 88 10 11 8 12 -8 4 -28 -14 -41 -7 -81 45 -42 56 -129 152 -241 267
-68 69 -84 81 -94 69 -6 -7 -9 -23 -6 -35 3 -12 0 -22 -9 -26 -8 -3 -14 -11
-14 -19 0 -9 -11 -14 -28 -14 -16 0 -47 -9 -70 -20 -30 -14 -61 -20 -114 -20
-90 0 -157 18 -227 59 -29 18 -67 35 -83 38 -15 3 -31 10 -34 14 -3 5 -18 9
-33 9 -17 0 -41 12 -62 31 -19 17 -44 38 -56 46 -12 8 -31 35 -43 61 -24 50
-22 94 5 148 13 28 25 35 123 75 13 5 30 22 40 38 18 32 60 61 89 61 10 0 28
6 39 14 62 44 194 53 258 17z m1211 -1026 c45 -44 24 -124 -38 -148 -28 -10
-86 18 -97 48 -16 41 -12 61 16 94 33 40 83 43 119 6z m-125 -150 c7 -9 10
-18 7 -21 -10 -11 -37 5 -37 21 0 19 14 19 30 0z m-1411 -41 c59 -18 86 -18
101 1 8 10 31 15 70 15 53 0 61 -3 85 -32 l26 -31 -3 -216 c-3 -207 -4 -217
-26 -248 -25 -35 -46 -42 -55 -19 -4 10 0 12 14 9 11 -3 19 0 19 6 0 7 -4 9
-10 6 -5 -3 -10 -2 -10 4 0 5 5 13 10 16 6 3 10 1 10 -4 0 -6 5 -11 11 -11 7
0 9 10 5 24 -3 14 -2 27 3 31 15 9 9 385 -6 385 -7 0 -13 5 -13 10 0 6 5 10
12 10 6 0 3 9 -9 19 -20 19 -67 23 -91 8 -7 -5 -27 -10 -44 -13 -17 -2 -36 -8
-42 -14 -15 -15 -26 -12 -26 6 0 11 -6 15 -20 11 -11 -3 -20 -1 -20 4 0 5 -14
8 -32 7 -17 -1 -33 2 -35 7 -4 14 -256 10 -261 -4 -2 -6 -16 -8 -31 -5 -16 4
-32 1 -35 -5 -4 -6 -20 -11 -37 -11 -22 0 -29 -5 -29 -20 0 -11 -4 -20 -10
-20 -5 0 -10 5 -10 10 0 6 -11 3 -25 -6 -14 -9 -25 -23 -25 -30 0 -8 -7 -14
-15 -14 -34 0 -106 -97 -98 -131 3 -10 1 -19 -5 -19 -19 0 -31 -64 -33 -180
-2 -73 2 -123 9 -137 7 -12 12 -31 12 -43 0 -19 5 -29 37 -64 7 -8 10 -16 7
-19 -4 -3 -3 -11 1 -17 6 -9 10 -9 16 1 6 10 9 6 9 -14 0 -21 7 -30 27 -38 21
-8 24 -12 13 -22 -10 -9 -13 -9 -17 1 -7 19 -33 14 -54 -10 -14 -18 -18 -20
-19 -7 0 9 10 23 21 31 l21 14 -24 29 c-13 17 -37 55 -54 85 -28 54 -29 58
-28 200 0 141 1 147 31 212 59 125 181 222 318 254 73 16 294 9 364 -12z
m1070 12 c95 -15 130 -29 97 -42 -10 -4 -21 -2 -25 4 -4 6 -20 11 -36 11 -17
0 -59 4 -95 9 -138 19 -360 -9 -360 -45 0 -7 -7 -10 -17 -6 -10 4 -14 2 -9 -5
3 -6 1 -14 -5 -18 -8 -4 -9 -3 -5 4 4 7 3 12 -2 12 -15 0 -113 -91 -107 -99 2
-5 -7 -13 -20 -19 -16 -7 -23 -17 -19 -27 4 -10 0 -15 -10 -15 -9 0 -16 -7
-16 -15 0 -8 -4 -15 -9 -15 -6 0 -24 -28 -41 -62 -18 -35 -37 -69 -42 -75 -6
-7 -8 -23 -5 -34 4 -13 -1 -28 -10 -38 -15 -14 -15 -12 -9 24 9 46 49 142 83
197 33 54 151 169 204 200 47 28 113 53 159 61 56 10 211 6 299 -7z m461 -2
c0 -2 -10 -13 -22 -24 -19 -17 -21 -24 -10 -40 16 -26 15 -30 -6 -30 -25 0
-54 33 -47 53 4 8 2 18 -4 22 -19 11 -12 27 9 20 11 -3 27 -2 37 3 15 9 43 6
43 -4z m-2264 -40 c19 -24 24 -43 24 -86 0 -51 -3 -58 -35 -87 -20 -17 -38
-31 -41 -31 -6 0 47 72 60 82 6 4 6 12 -1 20 -5 7 -9 27 -8 43 1 33 -11 65
-25 65 -5 0 -7 -7 -4 -14 5 -13 2 -13 -20 -3 -14 7 -26 14 -26 17 0 3 -85 4
-190 2 -129 -3 -190 -1 -190 6 0 17 36 20 239 19 l194 -2 23 -31z m2154 6 c0
-5 -7 -7 -15 -4 -8 4 -12 10 -9 15 6 11 24 2 24 -11z m-1613 -12 c-3 -8 -6 -5
-6 6 -1 11 2 17 5 13 3 -3 4 -12 1 -19z m-1160 6 c-3 -3 -12 -4 -19 -1 -8 3
-5 6 6 6 11 1 17 -2 13 -5z m1131 -59 c3 -61 3 -61 -31 -73 -18 -6 -44 -26
-56 -43 -31 -41 -26 -117 10 -155 21 -23 255 -144 277 -144 19 0 137 -84 178
-127 25 -25 59 -76 76 -112 29 -60 32 -74 31 -163 0 -90 -2 -102 -36 -172 -71
-150 -209 -244 -382 -262 l-61 -6 0 61 1 62 40 10 c73 19 105 59 105 133 0 67
-45 107 -185 170 -231 102 -312 163 -367 274 -32 64 -33 71 -33 187 0 111 2
124 28 173 64 126 149 193 287 229 47 12 92 21 100 20 11 -2 16 -18 18 -62z
m1109 8 c3 -47 0 -54 -27 -73 -17 -12 -35 -30 -41 -41 -14 -27 -13 -974 2
-1000 5 -11 16 -19 23 -19 19 0 26 -23 26 -80 0 -29 -5 -50 -12 -52 -20 -7
-150 32 -203 60 -79 43 -188 159 -229 244 -57 120 -70 185 -71 343 0 163 16
235 77 363 47 96 143 200 229 247 62 33 162 65 199 62 23 -2 25 -6 27 -54z
m161 37 c55 -11 116 -27 136 -35 52 -22 72 -19 96 14 27 39 53 46 85 25 l25
-16 0 -217 c0 -249 -4 -264 -68 -259 -33 3 -37 7 -54 53 -35 93 -113 237 -142
261 -40 34 -100 64 -130 64 -49 0 -56 8 -56 71 0 32 2 59 4 59 2 0 49 -9 104
-20z m222 13 c-1 -15 -30 -46 -37 -40 -3 4 2 16 13 26 22 23 24 24 24 14z
m-1259 -40 l77 -27 35 31 c36 32 65 35 86 9 6 -7 11 -95 12 -206 1 -189 1
-194 -21 -212 -12 -10 -31 -18 -42 -18 -26 0 -68 47 -68 77 0 38 -51 132 -97
178 -39 40 -72 60 -136 84 -23 9 -27 16 -27 50 0 67 6 74 59 67 25 -4 80 -19
122 -33z m1199 27 c0 -5 -7 -10 -16 -10 -8 0 -12 5 -9 10 3 6 10 10 16 10 5 0
9 -4 9 -10z m-2605 -10 c-3 -5 -11 -10 -16 -10 -6 0 -7 5 -4 10 3 6 11 10 16
10 6 0 7 -4 4 -10z m615 -20 c35 -35 17 -84 -36 -99 -24 -6 -30 -14 -35 -47
-4 -21 -7 -225 -8 -453 -1 -412 -1 -415 -24 -465 -62 -135 -163 -193 -354
-203 l-103 -6 0 61 c0 48 4 64 18 74 39 28 42 64 42 544 l0 463 -22 15 c-12 9
-30 16 -39 16 -26 0 -51 35 -47 66 5 50 27 54 321 54 254 0 268 -1 287 -20z
m870 10 c0 -5 -5 -10 -11 -10 -5 0 -7 5 -4 10 3 6 8 10 11 10 2 0 4 -4 4 -10z
m500 -40 c0 -5 -5 -10 -11 -10 -5 0 -7 5 -4 10 3 6 8 10 11 10 2 0 4 -4 4 -10z
m-760 -72 c0 -7 -5 -6 -13 1 -8 6 -18 7 -22 3 -5 -4 -5 -2 -1 5 8 14 36 6 36
-9z m1084 6 c4 -10 14 -14 25 -11 10 2 29 -4 42 -15 l24 -19 -50 7 c-49 7 -65
17 -65 42 0 17 17 15 24 -4z m-2309 -4 c3 -6 -1 -7 -9 -4 -18 7 -21 14 -7 14
6 0 13 -4 16 -10z m1265 -26 c0 -12 6 -15 24 -10 16 4 29 0 41 -14 10 -11 15
-20 11 -20 -7 0 6 -18 54 -77 6 -7 10 -19 10 -28 0 -9 9 -15 21 -15 17 0 19
-3 10 -14 -10 -11 -9 -16 5 -24 9 -5 14 -14 10 -21 -12 -19 -22 -12 -39 27
-20 45 -53 99 -72 118 -23 23 -107 64 -131 64 -64 0 -100 -48 -70 -94 14 -22
47 -40 247 -134 20 -9 35 -22 32 -28 -2 -7 4 -15 15 -18 10 -4 30 -18 43 -33
l24 -27 -25 17 c-14 9 -40 24 -57 33 -18 9 -33 22 -33 28 0 6 -14 17 -30 23
-19 7 -28 7 -24 1 4 -5 -1 -8 -10 -6 -10 1 -17 8 -18 13 -1 20 -39 37 -66 31
-18 -5 -22 -4 -13 3 7 5 10 14 6 21 -5 8 -10 9 -18 1 -16 -16 -27 -14 -27 4 0
9 -6 15 -14 13 -8 -2 -15 2 -16 7 -1 6 -11 20 -22 33 -16 17 -24 19 -30 10 -4
-7 -7 9 -6 37 3 49 24 85 51 85 8 0 7 -4 -3 -11 -12 -8 -9 -9 10 -4 27 7 90
22 103 24 4 0 7 -6 7 -15z m1180 -13 c0 -19 45 -42 66 -34 8 3 14 0 14 -6 0
-6 -5 -11 -11 -11 -6 0 -1 -13 10 -29 12 -16 21 -33 21 -39 0 -5 10 -20 23
-34 16 -17 21 -31 16 -49 -6 -23 -7 -22 -25 16 -39 83 -85 143 -122 161 -20 9
-31 19 -24 22 9 3 10 7 2 17 -9 11 -7 12 9 8 12 -3 21 -13 21 -22z m-160 0 c0
-5 -7 -14 -15 -21 -12 -10 -15 -45 -15 -191 0 -137 -3 -179 -12 -179 -20 0 -8
347 12 378 15 22 30 29 30 13z m-1150 -131 c0 -5 -4 -10 -10 -10 -5 0 -10 5
-10 10 0 6 5 10 10 10 6 0 10 -4 10 -10z m640 -47 c0 -5 -5 -15 -10 -23 -8
-12 -10 -11 -10 8 0 12 5 22 10 22 6 0 10 -3 10 -7z m1426 -27 c3 -8 4 -25 2
-38 -3 -22 -4 -22 -20 8 -16 30 -15 44 4 44 5 0 11 -6 14 -14z m-591 -17 c-5
-16 -4 -19 5 -14 9 5 10 2 6 -12 -4 -12 -1 -25 9 -33 8 -7 15 -19 15 -28 0 -8
11 -25 25 -38 14 -13 21 -25 17 -28 -12 -7 -72 43 -72 60 0 8 -7 26 -16 40
-14 21 -15 29 -4 49 16 31 24 32 15 4z m-1125 -44 l23 -25 -26 13 c-15 6 -27
18 -27 25 0 17 3 16 30 -13z m260 -14 c0 -4 -7 -17 -16 -29 -8 -12 -13 -31 -9
-42 3 -10 0 -38 -6 -60 -10 -32 -10 -46 -1 -60 6 -11 9 -27 5 -37 -6 -16 -8
-15 -14 7 -11 39 -10 164 1 197 6 16 17 30 25 30 8 0 15 -3 15 -6z m-200 -25
c0 -11 -19 -15 -25 -6 -3 5 1 10 9 10 9 0 16 -2 16 -4z m994 -14 c3 -5 3 -26
-1 -46 -5 -34 -8 -37 -37 -34 -35 3 -46 31 -26 67 11 21 54 29 64 13z m661
-169 c-4 -116 -10 -174 -19 -189 -9 -13 -12 -36 -9 -65 3 -29 -1 -58 -11 -83
-9 -21 -16 -49 -16 -62 0 -13 -9 -47 -20 -76 -11 -29 -20 -60 -20 -69 0 -9
-13 -42 -29 -75 -16 -32 -32 -73 -36 -90 -3 -17 -17 -46 -31 -65 -13 -18 -24
-44 -24 -57 0 -14 -14 -38 -32 -56 -21 -21 -33 -44 -34 -62 -1 -16 -14 -60
-29 -99 -14 -38 -30 -83 -35 -100 -16 -58 -83 -201 -110 -236 -16 -20 -35 -51
-43 -70 -8 -19 -24 -43 -36 -53 -11 -11 -21 -25 -21 -32 0 -7 -24 -41 -52 -75
-60 -70 -299 -309 -310 -309 -4 0 -28 -18 -53 -40 -25 -22 -49 -40 -52 -40 -9
0 -32 34 -33 48 0 19 16 14 26 -9 9 -20 10 -20 33 -2 20 16 21 22 11 45 -7 15
-24 29 -39 33 -21 5 -30 1 -48 -22 -29 -36 -29 -47 4 -73 22 -17 25 -24 16
-38 -6 -9 -18 -16 -27 -16 -9 1 -16 -4 -16 -11 0 -8 -14 -23 -30 -35 l-30 -21
-29 23 c-37 28 -38 38 -6 38 24 0 65 34 65 54 -1 33 -15 56 -42 65 -45 16 -69
14 -61 -5 4 -10 -1 -17 -16 -21 -15 -4 -21 -13 -21 -34 0 -15 5 -31 10 -34 18
-11 11 -21 -29 -38 -25 -11 -41 -26 -45 -42 -7 -26 6 -69 23 -80 18 -10 12
-25 -14 -37 -21 -10 -29 -8 -48 9 -12 12 -34 21 -49 21 -32 -1 -75 -42 -80
-78 -2 -19 -11 -26 -38 -31 -19 -4 -53 -14 -75 -23 -39 -15 -85 -21 -85 -11 0
3 9 14 20 25 24 24 25 52 3 88 -28 46 -42 53 -72 37 -14 -7 -34 -16 -43 -19
-22 -7 -24 -54 -4 -62 17 -6 17 -67 1 -83 -6 -5 -77 -11 -160 -13 l-149 -3 -8
44 c-9 52 -29 76 -73 91 -38 13 -73 2 -104 -31 -22 -24 -43 -26 -134 -13 -45
6 -49 4 -80 -30 l-33 -36 -75 19 -74 19 0 43 0 44 -54 2 c-59 3 -66 6 -56 22
4 8 12 8 26 0 27 -14 64 10 83 54 14 31 15 31 21 10 9 -28 10 -28 35 -3 11 11
26 17 35 14 11 -5 15 1 15 25 0 31 -21 43 -35 21 -3 -6 -12 -10 -19 -10 -8 0
-12 22 -13 74 l-1 74 51 6 c53 5 168 -5 199 -18 13 -6 15 -3 11 12 -7 28 6 30
222 38 328 10 349 12 378 23 16 6 42 11 59 11 17 0 39 6 47 13 9 7 50 26 91
42 73 28 139 74 256 177 60 53 103 78 134 78 14 0 20 6 20 23 0 38 29 70 58
64 19 -4 33 3 55 24 37 37 56 37 55 0 -1 -15 2 -33 6 -40 9 -14 43 -15 51 -1
3 6 19 10 35 10 63 0 79 59 28 102 -32 26 -33 26 -14 47 16 17 18 27 10 49 -6
17 -16 26 -26 24 -9 -1 -20 2 -23 9 -6 9 12 41 85 149 9 14 19 36 23 50 8 37
36 118 57 170 73 180 73 179 105 186 42 9 136 51 157 71 15 13 23 14 43 5 28
-13 39 -1 33 33 -4 24 21 31 28 8 26 -79 39 -88 82 -57 23 16 30 58 10 70 -6
4 -25 10 -41 13 -43 9 -42 22 4 54 l40 28 30 -26 c41 -34 80 -32 122 5 19 17
40 30 46 30 16 0 41 54 41 89 0 23 -8 34 -35 51 -38 23 -65 21 -100 -10 -31
-28 -62 -33 -87 -16 -12 9 -35 16 -50 16 -16 0 -28 5 -28 10 0 6 13 10 30 10
16 0 44 6 62 14 18 8 45 17 59 20 45 10 69 64 57 131 -3 17 3 20 47 23 65 4
105 39 105 92 0 33 -20 76 -44 92 -17 12 -79 8 -105 -6 -35 -19 -71 -9 -71 21
0 13 -5 33 -10 44 -10 17 -7 19 22 19 18 0 41 -9 54 -21 12 -11 40 -23 62 -26
36 -5 44 -2 69 25 15 16 31 30 36 31 4 0 5 -74 2 -166z m-1615 142 c0 -8 -4
-15 -10 -15 -5 0 -10 7 -10 15 0 8 5 15 10 15 6 0 10 -7 10 -15z m1145 -5 c3
-5 -1 -10 -9 -10 -9 0 -16 5 -16 10 0 6 4 10 9 10 6 0 13 -4 16 -10z m-1170
-21 c4 -6 13 -8 20 -5 19 7 52 -20 63 -52 8 -24 7 -28 -9 -28 -14 0 -17 5 -13
20 5 14 3 18 -9 13 -11 -4 -14 -2 -10 9 3 9 -1 14 -14 14 -11 0 -28 9 -38 20
-10 11 -13 20 -7 20 6 0 14 -5 17 -11z m1163 -35 c-22 -22 -178 -24 -178 -3 0
8 21 10 73 5 42 -3 78 -2 87 4 24 15 36 12 18 -6z m-274 -3 c6 -9 -115 -19
-149 -12 -15 2 -15 5 -4 12 19 12 146 12 153 0z m402 -20 c27 -26 32 -37 33
-84 1 -64 -25 -109 -59 -100 -22 6 -26 18 -9 29 6 3 15 0 20 -7 4 -7 9 -11 11
-9 18 28 27 50 20 50 -5 0 -9 20 -10 45 0 55 -31 88 -72 79 -24 -5 -24 -5 -5
10 28 21 36 20 71 -13z m-63 -35 c28 -7 47 -43 37 -71 -4 -11 -20 -30 -34 -42
l-26 -23 0 -173 0 -173 -28 -27 c-37 -35 -177 -115 -227 -129 -22 -6 -71 -16
-108 -23 -76 -13 -81 -10 -83 45 -2 44 11 80 30 80 7 0 21 11 30 25 13 20 16
55 16 198 0 178 -4 197 -41 197 -26 0 -69 39 -69 64 0 37 29 55 95 58 94 5
382 1 408 -6z m-523 -26 c0 -5 -4 -10 -10 -10 -5 0 -10 5 -10 10 0 6 5 10 10
10 6 0 10 -4 10 -10z m-10 -45 c0 -8 12 -23 26 -34 15 -12 21 -21 14 -21 -16
0 -70 61 -70 79 0 11 3 11 15 1 8 -7 15 -18 15 -25z m-560 -17 c0 -16 -3 -19
-11 -11 -6 6 -8 16 -5 22 11 17 16 13 16 -11z m-1787 -23 c6 -14 -6 -14 -77 0
-11 2 -28 0 -38 -6 -10 -5 -18 -6 -18 -1 0 17 15 22 71 22 41 0 58 -4 62 -15z
m2385 -30 c26 5 32 2 52 -30 18 -29 23 -52 23 -118 2 -114 -5 -187 -18 -187
-6 0 -9 51 -7 149 l3 149 -32 11 c-63 22 -61 27 -58 -156 2 -113 -1 -168 -8
-170 -6 -2 -14 1 -18 6 -3 6 -3 11 2 11 11 0 10 323 -1 331 -5 4 -5 12 -1 19
6 10 11 9 21 -4 9 -13 20 -16 42 -11z m-1368 -17 c0 -15 -15 -8 -28 12 -12 19
-11 20 8 8 11 -7 20 -16 20 -20z m-1185 2 c-10 -11 -20 -18 -23 -16 -5 6 21
35 32 36 5 0 1 -9 -9 -20z m255 5 c7 -8 8 -15 2 -15 -5 0 -15 7 -22 15 -7 8
-8 15 -2 15 5 0 15 -7 22 -15z m90 -11 c0 -14 -4 -23 -10 -19 -5 3 -10 15 -10
26 0 10 5 19 10 19 6 0 10 -12 10 -26z m-152 1 c99 -42 148 -154 108 -248 -12
-30 -59 -78 -102 -103 -18 -11 -17 -12 11 -19 39 -10 45 -20 45 -77 0 -46 -1
-48 -28 -48 -38 0 -118 28 -162 56 -131 83 -182 235 -117 346 54 93 153 131
245 93z m942 11 c0 -11 -19 -15 -25 -6 -3 5 1 10 9 10 9 0 16 -2 16 -4z m-150
-16 c0 -5 -4 -10 -10 -10 -5 0 -10 5 -10 10 0 6 5 10 10 10 6 0 10 -4 10 -10z
m96 -4 c12 -8 29 -41 39 -73 45 -148 141 -268 235 -293 l38 -10 -2 -58 -2 -57
-54 3 c-32 2 -81 15 -121 32 -37 17 -71 30 -76 30 -5 0 -22 -13 -38 -30 -16
-16 -39 -30 -52 -30 -45 0 -52 29 -53 245 -1 110 1 208 5 218 7 16 34 34 55
36 3 1 15 -6 26 -13z m879 4 c3 -5 1 -10 -4 -10 -6 0 -11 5 -11 10 0 6 2 10 4
10 3 0 8 -4 11 -10z m1119 -52 c-2 -35 -3 -69 -3 -77 -1 -8 -4 -11 -8 -7 -10
9 -13 81 -6 119 9 49 19 28 17 -35z m-2774 32 c0 -13 -11 -13 -30 0 -12 8 -11
10 8 10 12 0 22 -4 22 -10z m-359 -17 c-15 -28 -40 -59 -41 -50 0 8 41 67 47
67 2 0 -1 -8 -6 -17z m1298 6 c-14 -9 13 -28 37 -27 28 3 84 -22 84 -36 0 -16
76 -50 94 -43 10 4 16 1 16 -8 0 -7 9 -17 20 -20 21 -7 28 -25 10 -25 -6 0
-27 10 -48 23 -20 13 -66 36 -102 51 -104 44 -180 81 -180 86 0 3 18 5 39 5
22 0 35 -2 30 -6z m751 -20 c0 -5 -4 -9 -10 -9 -5 0 -10 7 -10 16 0 8 5 12 10
9 6 -3 10 -10 10 -16z m-830 7 c0 -3 -4 -8 -10 -11 -5 -3 -10 -1 -10 4 0 6 5
11 10 11 6 0 10 -2 10 -4z m45 -88 c47 -93 76 -127 137 -160 58 -32 72 -34
119 -14 51 21 73 49 60 75 -14 25 -14 34 -1 26 6 -3 10 -1 10 4 0 18 17 12 22
-7 10 -36 -3 -82 -23 -82 -12 0 -19 -7 -19 -19 0 -14 -5 -18 -20 -14 -11 3
-30 -1 -42 -9 -38 -24 -58 -29 -51 -12 3 7 1 14 -5 14 -6 0 -12 -5 -14 -11 -2
-6 -24 8 -50 30 -30 27 -48 37 -51 29 -4 -10 -7 -11 -18 0 -11 10 -11 12 0 12
11 0 11 3 1 15 -7 8 -16 12 -21 9 -5 -3 -6 2 -3 10 8 21 -35 76 -55 69 -13 -4
-13 -3 -2 5 13 10 6 36 -8 28 -4 -3 -8 13 -8 35 -1 21 0 39 2 39 2 0 20 -32
40 -72z m-855 10 c0 -14 -18 -9 -24 8 -11 28 -6 39 9 20 8 -11 15 -23 15 -28z
m607 -210 c-1 -46 -3 -11 -3 77 0 88 2 125 3 83 2 -42 2 -114 0 -160z m-1070
160 c-2 -13 -4 -3 -4 22 0 25 2 35 4 23 2 -13 2 -33 0 -45z m2136 -1 c4 3 7
-7 7 -23 0 -23 2 -26 10 -14 8 11 9 9 5 -11 -4 -17 -1 -30 9 -38 9 -8 16 -19
16 -25 0 -6 16 -29 36 -50 29 -31 38 -36 46 -25 7 10 8 8 3 -8 -7 -25 13 -42
27 -22 7 11 8 9 4 -5 -4 -12 0 -23 11 -31 10 -8 14 -17 10 -22 -5 -4 -42 27
-83 69 -66 69 -85 98 -123 191 -6 16 -16 27 -22 25 -6 -2 -20 -33 -32 -69 -22
-65 -62 -135 -82 -143 -5 -2 -10 10 -11 25 -1 16 3 29 7 29 5 0 9 -6 9 -12 0
-7 11 4 25 24 14 20 25 46 25 56 0 11 6 35 14 53 7 19 11 41 9 49 -4 13 -3 13
7 0 10 -13 12 -13 23 2 10 16 13 15 27 -8 9 -13 20 -21 23 -17z m1056 -48 c-1
-48 -11 -111 -17 -105 -3 4 -6 42 -7 86 -1 65 1 76 12 61 6 -10 12 -29 12 -42z
m-2250 -62 c1 -5 -3 -5 -9 -2 -5 3 -10 16 -9 28 0 21 1 21 9 2 5 -11 9 -24 9
-28z m-489 20 c0 -15 -29 -57 -30 -42 0 6 3 20 6 33 7 24 24 31 24 9z m-430
-47 c0 -13 -1 -13 -10 0 -8 13 -10 12 -10 -3 0 -10 11 -29 24 -41 12 -13 26
-31 29 -40 4 -9 11 -16 17 -16 6 0 8 5 5 10 -3 6 -1 10 5 10 6 0 8 -10 5 -23
-5 -20 1 -27 44 -51 28 -15 51 -31 51 -37 0 -43 -155 93 -184 161 -10 25 -11
40 -4 54 8 15 12 16 19 5 5 -8 9 -21 9 -29z m1395 0 c3 -5 1 -10 -4 -10 -6 0
-11 5 -11 10 0 6 2 10 4 10 3 0 8 -4 11 -10z m815 0 c0 -5 -4 -10 -10 -10 -5
0 -10 5 -10 10 0 6 5 10 10 10 6 0 10 -4 10 -10z m-1809 -17 c13 -15 11 -16
-13 -10 -23 6 -27 5 -21 -10 5 -14 3 -16 -7 -6 -11 10 -11 15 0 28 16 19 24
19 41 -2z m499 8 c0 -6 -4 -13 -10 -16 -5 -3 -10 1 -10 9 0 9 5 16 10 16 6 0
10 -4 10 -9z m1780 -24 c0 -5 -5 -5 -10 -2 -6 4 -17 1 -25 -5 -14 -11 -35 -6
-35 9 0 4 12 12 28 17 26 10 41 3 42 -19z m442 -39 c-9 -9 -12 -7 -12 12 0 19
3 21 12 12 9 -9 9 -15 0 -24z m-42 -2 c0 -3 -4 -8 -10 -11 -5 -3 -10 -1 -10 4
0 6 5 11 10 11 6 0 10 -2 10 -4z m-1185 -52 c-100 -89 -190 -115 -398 -114
-137 0 -152 2 -204 26 -58 27 -90 51 -80 60 3 3 16 0 29 -7 12 -7 25 -14 28
-15 3 -1 15 -5 28 -9 12 -4 22 -12 22 -17 0 -6 13 -8 30 -4 17 3 30 1 30 -4 0
-5 58 -9 130 -9 84 -1 129 3 125 9 -3 6 0 10 9 10 8 0 16 -6 19 -12 3 -10 9
-8 24 5 11 9 27 15 36 12 8 -4 18 -2 22 4 3 6 15 11 26 11 10 0 19 5 19 10 0
6 9 10 20 10 12 0 40 18 63 40 23 22 49 39 57 39 8 0 -7 -20 -35 -45z m-835
-13 c0 -6 -5 -13 -10 -16 -17 -10 0 -26 21 -20 11 4 19 2 19 -4 0 -6 -7 -11
-16 -11 -8 0 -12 -5 -8 -11 3 -6 15 -9 25 -6 10 3 22 1 25 -4 3 -5 17 -9 32
-8 24 0 25 1 7 9 -19 8 -19 9 3 9 12 1 22 -3 22 -9 0 -5 5 -10 10 -10 6 0 10
7 10 15 0 8 -5 15 -11 15 -5 0 -7 5 -4 10 4 6 12 4 22 -5 27 -27 -1 -45 -71
-45 -56 0 -65 3 -90 29 -24 26 -26 31 -14 50 13 22 28 28 28 12z m780 5 c0
-11 -19 -15 -25 -6 -3 5 1 10 9 10 9 0 16 -2 16 -4z m507 -3 c-10 -9 23 -43
42 -43 9 -1 34 -9 56 -20 54 -26 182 -28 187 -3 3 16 4 16 20 0 32 -32 163
-19 190 18 11 15 10 -3 -2 -25 -14 -26 -56 -33 -217 -32 l-142 1 -86 40 c-47
22 -85 44 -85 49 0 13 11 22 28 22 9 0 12 -3 9 -7z m-1557 -7 c0 -3 -4 -8 -10
-11 -5 -3 -10 -1 -10 4 0 6 5 11 10 11 6 0 10 -2 10 -4z m2166 -21 c-23 -17
-36 -19 -36 -6 0 11 18 19 40 20 11 0 10 -3 -4 -14z m-2206 -2 c-8 -3 -27 -12
-42 -20 -16 -7 -28 -10 -28 -6 0 11 41 30 65 31 14 0 15 -1 5 -5z m-530 -24
c0 -14 -26 -11 -39 5 -9 11 -6 12 14 8 14 -2 25 -8 25 -13z m155 1 c3 -5 -1
-10 -9 -10 -9 0 -16 5 -16 10 0 6 4 10 9 10 6 0 13 -4 16 -10z m2530 0 c-3 -5
-14 -10 -23 -9 -14 0 -13 2 3 9 27 11 27 11 20 0z m-2305 -20 c-12 -8 -11 -10
6 -10 11 0 25 5 31 11 6 6 17 9 24 7 9 -3 4 -11 -14 -22 -34 -23 -217 -29
-225 -8 -3 9 13 12 60 11 34 0 74 4 88 9 32 14 49 15 30 2z m680 -220 c0 -27
-4 -51 -9 -54 -9 -6 -21 80 -13 101 9 27 22 -1 22 -47z m590 -1 c0 -37 -4 -58
-10 -54 -18 11 -12 115 7 115 2 0 3 -27 3 -61z m-390 41 c0 -5 -9 -10 -20 -10
-27 0 -25 -6 7 -34 24 -20 25 -26 14 -40 -14 -17 -76 -23 -66 -6 3 6 15 10 26
10 27 0 24 19 -6 30 -27 10 -32 29 -13 48 15 15 58 16 58 2z m120 0 c0 -6 11
-15 25 -20 19 -7 25 -17 25 -39 0 -16 -4 -33 -10 -36 -5 -3 -10 3 -10 14 0 28
-11 52 -21 45 -5 -3 -9 -16 -9 -29 0 -29 -17 -42 -23 -18 -3 14 -2 77 2 91 3
7 21 0 21 -8z m400 0 c0 -5 -8 -10 -19 -10 -10 0 -24 -7 -31 -15 -15 -18 -4
-55 16 -55 11 0 13 6 9 21 -6 17 -3 20 12 17 12 -2 18 -12 18 -28 0 -20 -6
-26 -28 -28 -16 -2 -35 2 -43 9 -19 16 -18 58 3 81 17 19 63 25 63 8z m280 0
c0 -6 11 -15 25 -20 14 -5 25 -16 25 -25 0 -8 9 -15 19 -15 23 0 36 16 21 25
-19 12 0 26 21 15 13 -8 19 -21 19 -45 0 -30 -3 -35 -24 -35 -13 0 -29 7 -36
15 -11 14 -14 13 -24 -1 -7 -9 -22 -14 -37 -12 -21 3 -24 8 -27 56 -2 31 1 52
7 52 6 0 11 -5 11 -10z m173 -20 c-5 -21 11 -28 22 -10 12 20 26 10 15 -11 -9
-15 -8 -24 1 -35 16 -19 4 -30 -15 -15 -8 7 -19 10 -25 7 -9 -6 -22 72 -14 87
8 15 21 -3 16 -23z m-1493 -25 c0 -32 -5 -47 -15 -52 -9 -3 -19 -2 -23 2 -4 4
-1 10 6 12 7 3 12 22 12 44 0 21 5 39 10 39 6 0 10 -20 10 -45z m573 3 c-17
-19 -17 -20 1 -34 11 -7 16 -17 12 -21 -10 -10 -40 11 -44 31 -4 20 26 58 40
50 5 -3 1 -15 -9 -26z m211 0 c3 -10 8 -8 16 5 15 23 57 22 70 -3 23 -43 -36
-81 -66 -42 -13 16 -15 16 -25 0 -24 -42 -92 -1 -69 41 5 11 15 21 22 24 16 5
44 -9 52 -25z m354 -21 c-4 -25 -30 -42 -52 -34 -22 9 -21 63 1 76 23 12 55
-15 51 -42z m-952 21 l6 -21 17 22 c12 15 26 22 42 19 21 -3 24 -9 27 -48 4
-47 -13 -70 -50 -70 -25 0 -22 16 5 25 16 5 18 8 7 12 -8 3 -22 12 -31 20 -14
12 -18 12 -24 -4 -7 -15 -9 -13 -14 11 -8 38 -31 47 -31 12 0 -13 -4 -28 -10
-31 -6 -4 -10 10 -10 34 0 39 2 41 29 41 22 0 32 -6 37 -22z m212 0 c3 -13 -3
-18 -20 -18 -21 -1 -22 -2 -5 -14 22 -17 22 -26 -2 -26 -31 0 -46 26 -32 56
13 29 54 30 59 2z m874 8 c11 -16 10 -56 -1 -56 -5 0 -11 10 -13 22 -4 31 -28
35 -28 4 0 -13 -4 -28 -10 -31 -6 -4 -10 7 -10 24 0 21 -5 31 -15 31 -9 0 -15
-9 -15 -24 0 -14 -4 -28 -10 -31 -6 -4 -10 10 -10 34 l0 41 53 -2 c28 -1 55
-7 59 -12z m-1222 -22 c0 -16 5 -24 13 -21 6 2 12 12 12 23 0 10 5 18 10 16
10 -3 9 -21 0 -50 -3 -7 -15 -12 -27 -10 -18 2 -24 11 -26 36 -2 18 1 32 7 32
6 0 11 -12 11 -26z m-70 -149 c0 -26 20 -26 30 0 11 28 30 25 30 -5 0 -25 -35
-48 -64 -43 -18 4 -24 12 -24 31 0 15 2 30 5 35 6 11 23 -2 23 -18z m266 -1
c-3 -7 -1 -16 4 -19 6 -4 10 -14 10 -23 0 -12 -3 -13 -12 -4 -7 7 -17 8 -30 1
-23 -12 -24 1 -3 42 15 28 42 31 31 3z m450 -24 c5 -29 4 -33 -6 -23 -10 9
-17 10 -27 1 -23 -19 -27 0 -9 39 19 41 32 36 42 -17z m203 35 c21 6 21 6 4
-31 -14 -28 -19 -32 -21 -18 -2 10 -8 23 -13 29 -5 5 -9 16 -9 25 0 12 2 12 9
1 5 -8 16 -11 30 -6z m214 0 c-3 -9 2 -22 12 -29 10 -7 15 -18 11 -25 -6 -8
-15 -4 -32 14 -20 21 -22 30 -13 41 15 19 30 18 22 -1z m425 -27 c11 -27 0
-49 -13 -28 -5 8 -11 7 -21 -1 -23 -19 -26 -5 -8 36 16 39 22 38 42 -7z
m-1088 15 c0 -10 3 -28 6 -41 5 -18 3 -21 -10 -16 -18 7 -23 74 -6 74 6 0 10
-8 10 -17z m870 -19 c0 -21 -4 -33 -10 -29 -17 10 -11 65 7 65 2 0 3 -16 3
-36z m294 -240 c4 -10 1 -14 -6 -12 -15 5 -23 28 -10 28 5 0 13 -7 16 -16z
m-762 -346 c-6 -6 -15 -8 -19 -4 -4 4 -1 11 7 16 19 12 27 3 12 -12z m-894
-87 c3 -25 -1 -31 -23 -37 -15 -4 -31 -1 -40 6 -20 16 -19 28 3 33 10 3 6 5
-10 6 -31 1 -35 12 -13 35 13 13 20 13 48 1 25 -10 33 -20 35 -44z m742 49 c0
-5 -4 -10 -10 -10 -5 0 -10 5 -10 10 0 6 5 10 10 10 6 0 10 -4 10 -10z m-185
-41 c0 -8 -9 -15 -20 -15 -11 -1 -28 -2 -37 -3 -10 -1 -15 -7 -12 -15 3 -8
-10 -21 -36 -35 -48 -25 -69 -26 -96 -6 -10 8 -29 15 -42 15 -63 1 21 45 103
55 22 2 58 9 80 14 48 10 60 9 60 -10z m-299 -34 c12 -30 -2 -36 -31 -11 l-30
26 28 0 c15 0 30 -7 33 -15z m-904 -27 c-7 -7 -12 -8 -12 -2 0 14 12 26 19 19
2 -3 -1 -11 -7 -17z m-301 -116 c14 -9 45 -34 69 -54 36 -32 41 -40 30 -53 -7
-8 -21 -15 -31 -15 -15 0 -17 5 -12 30 5 27 3 30 -21 30 -14 0 -26 5 -26 12 0
7 -12 25 -27 40 -30 31 -21 37 18 10z m898 -168 c3 -16 1 -17 -13 -5 -19 16
-21 34 -3 29 6 -3 14 -13 16 -24z"/>
<path d="M3646 5188 c-17 -24 -20 -38 -8 -38 8 0 34 52 28 57 -2 3 -11 -6 -20
-19z"/>
<path d="M3654 5125 c-4 -9 -2 -21 4 -27 15 -15 44 -1 40 19 -4 23 -36 29 -44
8z"/>
<path d="M2520 5490 c-8 -5 -12 -12 -8 -15 9 -9 48 4 48 16 0 12 -21 11 -40
-1z"/>
<path d="M2457 5416 c-4 -15 -6 -31 -2 -34 10 -10 16 6 13 35 l-3 28 -8 -29z"/>
<path d="M1808 5015 c-41 -28 -46 -40 -23 -49 8 -3 14 -13 13 -23 -3 -40 3
-63 16 -63 8 0 18 -9 21 -20 3 -11 15 -25 26 -30 10 -6 19 -17 19 -25 0 -23
18 -18 22 5 3 19 4 20 26 4 18 -12 21 -19 11 -30 -18 -22 -3 -44 30 -44 36 0
69 41 83 103 8 37 6 48 -18 93 -34 63 -76 93 -140 100 -42 5 -55 1 -86 -21z
m67 -35 c11 -12 16 -29 13 -45 -3 -14 -1 -25 4 -25 5 0 8 -12 6 -27 -4 -34
-28 -43 -28 -10 0 13 -9 32 -19 41 -12 11 -19 30 -18 52 1 38 15 43 42 14z
m60 -30 c-5 -8 -11 -8 -17 -2 -6 6 -7 16 -3 22 5 8 11 8 17 2 6 -6 7 -16 3
-22z m85 -150 c0 -5 -7 -10 -16 -10 -8 0 -12 5 -9 10 3 6 10 10 16 10 5 0 9
-4 9 -10z"/>
<path d="M2825 4919 c-22 -5 -81 -23 -131 -39 l-91 -31 -11 -61 c-6 -34 -10
-64 -8 -66 9 -8 181 85 243 132 87 66 86 85 -2 65z"/>
<path d="M2189 4786 c-107 -96 -137 -131 -125 -144 3 -2 31 18 63 46 32 27 80
63 106 80 29 18 56 45 68 68 41 81 26 74 -112 -50z"/>
<path d="M1615 4789 c-10 -15 3 -25 16 -12 7 7 7 13 1 17 -6 3 -14 1 -17 -5z"/>
<path d="M2055 4768 c-17 -13 -50 -36 -75 -51 -48 -29 -67 -43 -172 -125 -38
-29 -74 -52 -81 -51 -39 5 -77 -27 -77 -64 0 -13 -8 -31 -19 -41 -17 -16 -19
-15 -35 9 -12 19 -25 25 -51 25 -69 0 -98 -78 -44 -122 l21 -18 -24 -28 c-12
-16 -51 -62 -85 -103 -88 -104 -108 -130 -127 -164 -9 -16 -28 -48 -41 -70
-48 -81 -73 -131 -79 -162 -4 -18 -15 -42 -24 -55 -17 -23 -47 -98 -40 -101
20 -11 168 -57 181 -57 9 0 17 -4 17 -10 0 -13 94 -60 121 -60 33 0 147 64
225 126 131 104 306 269 331 311 43 74 94 206 82 214 -6 4 -37 10 -68 13 -72
9 -125 35 -129 63 -4 25 40 78 98 118 38 26 40 30 40 80 0 29 7 71 15 95 13
37 13 45 0 62 -12 18 -12 26 1 57 8 20 29 53 45 74 38 47 34 68 -6 35z m-670
-1118 c0 -16 -63 -56 -72 -46 -9 9 49 67 62 63 5 -2 10 -10 10 -17z"/>
<path d="M1732 4765 c-51 -22 -53 -98 -2 -125 30 -16 50 -12 80 19 21 21 27
34 23 52 -13 54 -52 74 -101 54z"/>
<path d="M2203 4656 c-24 -21 -43 -42 -43 -47 0 -5 16 -9 35 -9 29 0 37 5 46
27 5 15 9 36 7 47 -3 19 -7 17 -45 -18z"/>
<path d="M2121 4557 c-19 -24 -43 -89 -34 -97 13 -13 118 63 121 88 3 20 -1
22 -36 22 -22 0 -45 -6 -51 -13z"/>
<path d="M1235 4469 c-10 -15 1 -23 20 -15 9 3 13 10 10 16 -8 13 -22 13 -30
-1z"/>
<path d="M2123 4442 c-43 -27 -53 -45 -32 -57 20 -13 58 6 73 37 29 57 21 60
-41 20z"/>
<path d="M2566 4427 c-33 -19 -41 -31 -57 -82 -22 -70 -22 -75 -9 -75 16 0
110 91 126 122 15 28 10 58 -10 58 -6 0 -28 -10 -50 -23z"/>
<path d="M1295 4370 c-3 -5 -1 -10 4 -10 6 0 11 5 11 10 0 6 -2 10 -4 10 -3 0
-8 -4 -11 -10z"/>
<path d="M1962 4324 c-82 -72 -64 -105 65 -118 l61 -7 21 56 c31 82 29 91 -21
98 -24 2 -50 8 -58 11 -10 4 -35 -11 -68 -40z"/>
<path d="M1068 4284 c-32 -17 -58 -71 -58 -119 0 -58 70 -132 127 -134 27 -1
41 19 21 30 -11 6 -15 22 -13 55 2 25 6 48 9 51 10 10 7 65 -6 100 -13 37 -35
42 -80 17z"/>
<path d="M806 3751 c-9 -10 -16 -27 -16 -38 0 -19 7 -22 73 -25 39 -2 76 0 81
4 15 12 -14 68 -38 72 -50 8 -85 4 -100 -13z"/>
<path d="M1745 3539 c-70 -57 -165 -151 -165 -165 0 -6 9 -19 20 -29 12 -11
37 -45 56 -77 35 -58 54 -66 54 -25 1 19 83 273 104 320 14 29 -15 19 -69 -24z"/>
<path d="M788 3493 c-25 -27 -53 -64 -61 -83 -25 -58 -58 -162 -53 -167 10
-10 78 41 97 71 12 19 19 50 19 79 0 45 1 47 21 37 11 -7 26 -9 33 -7 27 11
28 117 2 117 -7 0 -32 -21 -58 -47z"/>
<path d="M1064 3528 c-5 -7 -10 -52 -12 -101 -4 -75 -8 -90 -25 -102 -18 -13
-19 -15 -4 -15 10 0 17 -8 17 -19 0 -37 17 -30 87 32 39 34 86 74 104 88 l34
27 -35 -2 c-30 -1 -37 3 -49 30 -9 20 -29 39 -57 53 -52 25 -51 24 -60 9z"/>
<path d="M2067 3206 c-11 -24 -14 -43 -8 -49 13 -13 33 28 29 61 -4 26 -4 26
-21 -12z"/>
<path d="M780 3220 c0 -5 5 -10 10 -10 6 0 10 5 10 10 0 6 -4 10 -10 10 -5 0
-10 -4 -10 -10z"/>
<path d="M1371 3149 c-76 -84 -150 -179 -219 -280 -66 -97 -101 -208 -104
-326 l-2 -88 67 -136 c37 -75 73 -139 80 -142 29 -11 66 5 76 34 5 15 30 62
55 103 25 42 46 78 46 81 0 4 38 84 84 178 118 244 139 288 135 290 -2 1 -17
9 -34 17 -30 16 -30 16 -30 105 0 82 -4 97 -35 163 -19 39 -39 72 -45 72 -5 0
-39 -32 -74 -71z m-67 -685 c9 -24 7 -28 -9 -14 -17 14 -20 30 -6 30 5 0 12
-7 15 -16z"/>
<path d="M654 3178 c-3 -18 -6 -85 -6 -149 1 -109 3 -123 38 -213 22 -57 42
-96 50 -96 15 0 19 45 5 54 -8 6 -19 58 -41 201 -6 39 -14 86 -17 107 -4 29
-1 40 16 54 24 21 28 39 6 30 -11 -4 -19 3 -25 19 -12 33 -17 32 -26 -7z"/>
<path d="M790 3086 c0 -15 18 -31 26 -23 7 7 -7 37 -17 37 -5 0 -9 -6 -9 -14z"/>
<path d="M720 3031 c0 -5 5 -13 10 -16 6 -3 10 -2 10 4 0 5 -4 13 -10 16 -5 3
-10 2 -10 -4z"/>
<path d="M1501 1981 c-42 -6 -45 -9 -83 -79 -40 -72 -40 -73 -27 -118 17 -55
27 -62 105 -65 47 -3 78 4 153 31 102 37 104 38 162 161 20 42 24 60 16 68
-12 12 -245 13 -326 2z"/>
<path d="M1060 1686 c0 -17 69 -78 112 -99 54 -26 80 -1 31 29 -16 10 -52 32
-80 51 -60 37 -63 38 -63 19z"/>
<path d="M1275 1581 c-2 -5 7 -13 22 -20 27 -12 39 -9 29 7 -8 13 -45 22 -51
13z"/>
<path d="M874 1509 c-3 -6 3 -21 15 -33 19 -18 23 -19 31 -6 18 28 12 50 -14
50 -14 0 -28 -5 -32 -11z"/>
<path d="M1205 1461 c-24 -54 -14 -65 48 -57 28 4 54 9 59 12 11 7 -10 45 -36
66 -33 27 -51 22 -71 -21z"/>
<path d="M786 1468 c-9 -12 -16 -40 -16 -60 l0 -38 51 1 c87 4 105 48 38 92
-49 33 -54 33 -73 5z"/>
<path d="M835 1300 c-4 -6 -3 -16 3 -22 6 -6 12 -6 17 2 4 6 3 16 -3 22 -6 6
-12 6 -17 -2z"/>
<path d="M1146 1283 c-12 -12 -5 -23 14 -23 11 0 20 4 20 9 0 11 -26 22 -34
14z"/>
<path d="M820 1220 c0 -5 5 -10 10 -10 6 0 10 5 10 10 0 6 -4 10 -10 10 -5 0
-10 -4 -10 -10z"/>
<path d="M1935 1070 c-3 -5 1 -10 10 -10 9 0 13 5 10 10 -3 6 -8 10 -10 10 -2
0 -7 -4 -10 -10z"/>
<path d="M2470 850 c0 -5 5 -10 10 -10 6 0 10 5 10 10 0 6 -4 10 -10 10 -5 0
-10 -4 -10 -10z"/>
<path d="M4410 4221 c0 -6 4 -13 10 -16 6 -3 7 1 4 9 -7 18 -14 21 -14 7z"/>
<path d="M4440 4079 c0 -5 5 -7 10 -4 6 3 10 8 10 11 0 2 -4 4 -10 4 -5 0 -10
-5 -10 -11z"/>
<path d="M4953 3993 c-7 -2 -13 -11 -13 -19 0 -12 4 -12 20 -4 32 17 26 37 -7
23z"/>
<path d="M5070 3910 c0 -5 7 -10 15 -10 8 0 15 5 15 10 0 6 -7 10 -15 10 -8 0
-15 -4 -15 -10z"/>
<path d="M4600 3854 c0 -8 5 -12 10 -9 6 4 8 11 5 16 -9 14 -15 11 -15 -7z"/>
<path d="M5160 3696 c0 -2 7 -7 16 -10 8 -3 12 -2 9 4 -6 10 -25 14 -25 6z"/>
<path d="M4957 3813 c-4 -3 -7 -28 -7 -55 0 -35 4 -48 13 -45 6 2 12 10 12 17
0 22 23 23 35 1 14 -28 34 -27 27 1 -3 12 -1 30 4 40 15 27 -6 48 -46 48 -17
0 -35 -3 -38 -7z m63 -28 c0 -8 -9 -15 -20 -15 -11 0 -20 7 -20 15 0 8 9 15
20 15 11 0 20 -7 20 -15z"/>
<path d="M5137 2344 c-9 -10 2 -24 19 -24 8 0 14 7 14 15 0 15 -21 21 -33 9z"/>
<path d="M4955 2061 c-3 -5 -1 -12 4 -15 5 -3 11 1 15 9 6 16 -9 21 -19 6z"/>
<path d="M4600 2050 c0 -5 5 -10 11 -10 5 0 7 5 4 10 -3 6 -8 10 -11 10 -2 0
-4 -4 -4 -10z"/>
<path d="M4840 1980 c0 -5 5 -10 10 -10 6 0 10 5 10 10 0 6 -4 10 -10 10 -5 0
-10 -4 -10 -10z"/>
<path d="M4536 1941 c-4 -7 -5 -15 -2 -18 9 -9 19 4 14 18 -4 11 -6 11 -12 0z"/>
<path d="M4862 1834 c1 -9 9 -19 16 -22 9 -3 13 2 10 14 -1 9 -9 19 -16 22 -9
3 -13 -2 -10 -14z"/>
<path d="M4670 1491 c0 -15 16 -22 35 -15 13 5 14 8 3 15 -18 12 -38 11 -38 0z"/>
<path d="M4440 1451 c-13 -26 -4 -48 24 -53 33 -6 46 1 46 26 0 44 -50 63 -70
27z"/>
<path d="M4380 1402 c0 -10 -5 -23 -12 -30 -7 -7 -8 -12 -4 -12 12 0 35 32 36
48 0 6 -4 12 -10 12 -5 0 -10 -8 -10 -18z"/>
<path d="M4620 1325 c0 -8 7 -15 15 -15 8 0 15 7 15 15 0 8 -7 15 -15 15 -8 0
-15 -7 -15 -15z"/>
<path d="M4590 1260 c0 -5 5 -10 10 -10 6 0 10 5 10 10 0 6 -4 10 -10 10 -5 0
-10 -4 -10 -10z"/>
<path d="M4470 1184 c0 -8 5 -12 10 -9 6 3 10 10 10 16 0 5 -4 9 -10 9 -5 0
-10 -7 -10 -16z"/>
<path d="M4340 1050 c0 -5 7 -10 15 -10 8 0 15 5 15 10 0 6 -7 10 -15 10 -8 0
-15 -4 -15 -10z"/>
<path d="M3730 925 c0 -8 5 -15 10 -15 6 0 10 7 10 15 0 8 -4 15 -10 15 -5 0
-10 -7 -10 -15z"/>
<path d="M2790 872 c0 -15 24 -32 47 -32 28 0 30 16 4 30 -23 12 -51 13 -51 2z"/>
<path d="M3120 826 c0 -9 5 -16 10 -16 6 0 10 4 10 9 0 6 -4 13 -10 16 -5 3
-10 -1 -10 -9z"/>
<path d="M3895 830 c3 -5 8 -10 11 -10 2 0 4 5 4 10 0 6 -5 10 -11 10 -5 0 -7
-4 -4 -10z"/>
<path d="M3210 749 c0 -5 5 -7 10 -4 6 3 10 8 10 11 0 2 -4 4 -10 4 -5 0 -10
-5 -10 -11z"/>
<path d="M3445 720 c-8 -14 13 -40 32 -40 20 0 12 44 -9 48 -9 2 -19 -2 -23
-8z"/>
<path d="M4060 2030 c0 -11 7 -20 15 -20 8 0 15 9 15 20 0 11 -7 20 -15 20 -8
0 -15 -9 -15 -20z"/>
<path d="M3470 2030 c0 -11 7 -20 15 -20 8 0 15 9 15 20 0 11 -7 20 -15 20 -8
0 -15 -9 -15 -20z"/>
<path d="M3560 2030 c0 -11 7 -20 15 -20 8 0 15 9 15 20 0 11 -7 20 -15 20 -8
0 -15 -9 -15 -20z"/>
<path d="M3830 2029 c0 -24 23 -21 28 4 2 10 -3 17 -12 17 -10 0 -16 -9 -16
-21z"/>
<path d="M2970 2030 c0 -13 5 -20 13 -17 6 2 12 10 12 17 0 7 -6 15 -12 18 -8
2 -13 -5 -13 -18z"/>
</g>
</svg>
